{
    "asset" : {
        "generator" : "Khronos glTF Blender I/O v1.3.48",
        "version" : "2.0"
    },
    "scene" : 0,
    "scenes" : [
        {
            "name" : "Scene",
            "nodes" : [
                0,
                1,
                2
            ]
        }
    ],
    "nodes" : [
        {
            "name" : "Soleil",
            "translation" : [
                1.255117416381836,
                8.10725212097168,
                21.858081817626953
            ]
        },
        {
            "name" : "Cam\u00e9ra",
            "rotation" : [
                0.5854416489601135,
                0.08479192852973938,
                -0.00509784696623683,
                0.8062520623207092
            ],
            "translation" : [
                1.8070440292358398,
                7.070084571838379,
                15.220243453979492
            ]
        },
        {
            "mesh" : 0,
            "name" : "18856_Dancing_Penguin_v1",
            "rotation" : [
                0.0013762707822024822,
                0,
                0,
                1
            ],
            "translation" : [
                -0.25373607873916626,
                2.6055781841278076,
                0.09217315912246704
            ]
        }
    ],
    "materials" : [
        {
            "doubleSided" : true,
            "emissiveFactor" : [
                0,
                0,
                0
            ],
            "name" : "Default OBJ",
            "pbrMetallicRoughness" : {
                "baseColorTexture" : {
                    "index" : 0,
                    "texCoord" : 0
                },
                "metallicFactor" : 0,
                "roughnessFactor" : 0.5
            }
        }
    ],
    "meshes" : [
        {
            "name" : "18856_Dancing_Penguin_v1",
            "primitives" : [
                {
                    "attributes" : {
                        "POSITION" : 0,
                        "NORMAL" : 1,
                        "TEXCOORD_0" : 2
                    },
                    "indices" : 3,
                    "material" : 0
                }
            ]
        }
    ],
    "textures" : [
        {
            "source" : 0
        }
    ],
    "images" : [
        {
            "mimeType" : "image/png",
            "name" : "Default OBJ Base Color",
            "uri" : "Default%20OBJ%20Base%20Color.png"
        }
    ],
    "accessors" : [
        {
            "bufferView" : 0,
            "componentType" : 5126,
            "count" : 16657,
            "max" : [
                2.763036012649536,
                3.229706287384033,
                1.1447348594665527
            ],
            "min" : [
                -2.7860639095306396,
                -2.7404932975769043,
                -1.7140655517578125
            ],
            "type" : "VEC3"
        },
        {
            "bufferView" : 1,
            "componentType" : 5126,
            "count" : 16657,
            "type" : "VEC3"
        },
        {
            "bufferView" : 2,
            "componentType" : 5126,
            "count" : 16657,
            "type" : "VEC2"
        },
        {
            "bufferView" : 3,
            "componentType" : 5123,
            "count" : 94794,
            "type" : "SCALAR"
        }
    ],
    "bufferViews" : [
        {
            "buffer" : 0,
            "byteLength" : 199884,
            "byteOffset" : 0
        },
        {
            "buffer" : 0,
            "byteLength" : 199884,
            "byteOffset" : 199884
        },
        {
            "buffer" : 0,
            "byteLength" : 133256,
            "byteOffset" : 399768
        },
        {
            "buffer" : 0,
            "byteLength" : 189588,
            "byteOffset" : 533024
        }
    ],
    "buffers" : [
        {
            "byteLength" : 722612,
            "uri" : "test.bin"
        }
    ]
}
